<svg width="50" height="50" viewBox="0 0 50 50" fill="none" xmlns="http://www.w3.org/2000/svg">
<path d="M45.4188 13.3843C44.7713 11.9158 43.9214 10.5452 42.8937 9.31245L37.4469 14.7593C38.722 15.514 40.2241 15.79 41.6842 15.5381C43.1444 15.2861 44.4671 14.5226 45.4156 13.3843M35.2344 12.55L40.6812 7.10308C39.4495 6.07568 38.0799 5.22576 36.6125 4.57808C35.4734 5.52673 34.7094 6.85006 34.4574 8.31089C34.2055 9.77171 34.482 11.2745 35.2375 12.55M31.25 9.37495C31.25 11.4 31.8938 13.275 32.9844 14.8062L30.4688 17.3218L19.5688 6.4187C21.5274 4.99574 23.7637 4.00102 26.1322 3.49922C28.5006 2.99743 30.9482 2.99981 33.3156 3.5062C31.9791 5.17028 31.2504 7.2406 31.25 9.37495ZM32.6781 19.5312L35.1937 17.0156C36.725 18.1093 38.6 18.75 40.625 18.75C42.759 18.7504 44.8293 18.0228 46.4938 16.6875C46.7458 17.8583 46.8729 19.0666 46.875 20.3125C46.875 24.0937 45.6531 27.5937 43.5812 30.4343L32.6781 19.5312ZM41.5125 32.7843L30.4688 21.7406L28.5781 23.6312C31.8281 27.3358 33.8223 31.9739 34.275 36.8812C37.025 36.1218 39.5 34.6906 41.5125 32.7843ZM13.1156 15.725C13.875 12.975 15.3031 10.5 17.2094 8.48745L28.2594 19.5312L26.3687 21.4218C22.6641 18.1719 18.0229 16.1777 13.1156 15.725ZM7.8125 18.75C6.5693 18.75 5.37701 19.2438 4.49794 20.1229C3.61886 21.002 3.125 22.1942 3.125 23.4375V26.5625C3.125 31.9497 5.26506 37.1162 9.07439 40.9256C12.8837 44.7349 18.0503 46.875 23.4375 46.875H26.5625C27.8057 46.875 28.998 46.3811 29.8771 45.502C30.7561 44.6229 31.25 43.4307 31.25 42.1875V39.0625C31.25 33.6752 29.1099 28.5087 25.3006 24.6993C21.4913 20.89 16.3247 18.75 10.9375 18.75H7.8125ZM13.7375 29.3625C13.8826 29.2169 14.0551 29.1015 14.2449 29.0227C14.4347 28.944 14.6382 28.9034 14.8438 28.9034C15.0493 28.9034 15.2528 28.944 15.4426 29.0227C15.6324 29.1015 15.8049 29.2169 15.95 29.3625L20.6375 34.05C20.7828 34.1952 20.898 34.3677 20.9766 34.5575C21.0553 34.7473 21.0957 34.9508 21.0957 35.1562C21.0957 35.3617 21.0553 35.5651 20.9766 35.7549C20.898 35.9447 20.7828 36.1172 20.6375 36.2625C20.4922 36.4077 20.3198 36.523 20.1299 36.6016C19.9401 36.6802 19.7367 36.7207 19.5312 36.7207C19.3258 36.7207 19.1224 36.6802 18.9326 36.6016C18.7427 36.523 18.5703 36.4077 18.425 36.2625L13.7375 31.575C13.592 31.4298 13.4765 31.2574 13.3978 31.0676C13.319 30.8777 13.2785 30.6742 13.2785 30.4687C13.2785 30.2632 13.319 30.0597 13.3978 29.8698C13.4765 29.68 13.592 29.5076 13.7375 29.3625Z" fill="white"/>
</svg>
