<svg width="50" height="50" viewBox="0 0 50 50" fill="none" xmlns="http://www.w3.org/2000/svg">
<g clip-path="url(#clip0_98_51)">
<path fill-rule="evenodd" clip-rule="evenodd" d="M24.7479 11.4583C22.7583 11.7021 20.8729 12.4083 20.0771 13.0625C15.4354 16.9 12.8146 21.9729 11.4542 26.3958C10.8684 28.2696 10.4761 30.1984 10.2833 32.1521C10.2125 32.95 10.1479 33.7854 10.2687 34.5833C11.0667 35.4875 12.1958 36.1437 13.2437 36.7062C15.4333 37.8833 18.7229 39.1041 23.1458 39.5958C25.65 39.875 28.8125 40.0333 31.7292 39.8C34.7563 39.5562 37.0771 38.9208 38.2812 37.9562C40.3104 36.3333 40.8229 34.4396 40.6375 32.7812C40.4396 30.9979 39.4375 29.4896 38.4292 28.8166C36.6896 27.6583 34.7313 27.5416 32.8854 28.025C30.9854 28.525 29.425 29.6083 28.6875 30.4958C28.5025 30.719 28.2729 30.9012 28.0134 31.0306C27.754 31.1601 27.4703 31.2339 27.1807 31.2474C26.8911 31.261 26.6018 31.2139 26.3314 31.1092C26.061 31.0045 25.8155 30.8446 25.6104 30.6396C24.4646 29.4937 22.5167 29.1604 19.9062 30.9C19.6215 31.0902 19.2942 31.2072 18.9534 31.2407C18.6125 31.2743 18.2687 31.2233 17.9523 31.0923C17.6359 30.9612 17.3567 30.7543 17.1393 30.4896C16.922 30.225 16.7732 29.9108 16.7062 29.575C16.1104 26.5875 16.4208 23.4125 16.9708 20.7937C17.525 18.1708 18.3583 15.9146 18.9708 14.6937C19.144 14.3481 19.41 14.0576 19.7389 13.8545C20.0678 13.6514 20.4468 13.5439 20.8333 13.5439C21.2199 13.5439 21.5988 13.6514 21.9278 13.8545C22.2567 14.0576 22.5226 14.3481 22.6958 14.6937C23.1188 15.5354 23.8917 16.2896 24.7917 16.6062C25.4896 16.1666 26.0958 15.5521 26.5875 14.8958C27.4917 13.6916 27.7938 12.5521 27.3917 11.5458C26.575 11.2541 25.5875 11.3562 24.7479 11.4583ZM27.8375 7.36664C28.8458 7.56039 30.3188 8.06456 31.0292 9.48539C32.5854 12.5979 31.3 15.5562 29.9208 17.3958C29.0208 18.5958 27.8625 19.725 26.5146 20.4166C26.2333 20.5625 25.6604 20.8333 25 20.8333C23.7688 20.8333 22.5625 20.2729 21.5729 19.5729C21.3854 20.2104 21.2042 20.9104 21.0479 21.6521C20.7389 23.0751 20.5714 24.5252 20.5479 25.9812C22.7417 25.2729 24.9854 25.3479 26.9188 26.4396C28.3717 25.2985 30.0428 24.4669 31.8292 23.9958C34.5375 23.2854 37.7875 23.3833 40.7396 25.35C42.8542 26.7604 44.4563 29.4166 44.7792 32.3229C45.1167 35.3521 44.0646 38.6646 40.8833 41.2104C38.6375 43.0062 35.2146 43.7 32.0646 43.9521C28.8042 44.2146 25.3604 44.0354 22.6875 43.7375C17.7333 43.1875 13.9292 41.8041 11.2708 40.3771C9.52708 39.4396 7.14167 38.1437 6.38542 36.1583C5.875 34.8125 6.00833 33.1791 6.13333 31.7791C6.3 29.9437 6.70833 27.6521 7.47292 25.1687C8.99792 20.2125 11.9833 14.3479 17.4229 9.85206C19.0958 8.46872 21.8958 7.61039 24.2396 7.32289C25.4479 7.17497 26.7188 7.15414 27.8375 7.36664Z" fill="white"/>
</g>
<defs>
<clipPath id="clip0_98_51">
<rect width="50" height="50" fill="white"/>
</clipPath>
</defs>
</svg>
