<svg width="100" height="100" viewBox="0 0 100 100" fill="none" xmlns="http://www.w3.org/2000/svg">
<g clip-path="url(#clip0_99_162)">
<path fill-rule="evenodd" clip-rule="evenodd" d="M83.0813 -5.60754e-05C85.5188 -5.60754e-05 87.5 1.98119 87.5 4.41869V12.4999H95.5813C96.4553 12.4998 97.3098 12.7588 98.0367 13.2443C98.7635 13.7299 99.33 14.42 99.6645 15.2276C99.9991 16.0351 100.087 16.9237 99.916 17.781C99.7454 18.6383 99.3244 19.4257 98.7063 20.0437L89.5813 29.1687C88.2489 30.4981 86.4446 31.2463 84.5625 31.2499H75.375L53.3125 53.3124C52.4239 54.1404 51.2486 54.5912 50.0342 54.5698C48.8199 54.5484 47.6612 54.0564 46.8024 53.1976C45.9435 52.3387 45.4516 51.1801 45.4302 49.9657C45.4087 48.7513 45.8595 47.576 46.6875 46.6874L68.75 24.6249V15.4374C68.75 13.5562 69.5 11.7499 70.8313 10.4124L79.9563 1.28744C80.3652 0.875201 80.8522 0.548495 81.3887 0.326374C81.9252 0.104254 82.5006 -0.00883766 83.0813 -0.00630608M15.625 49.9999C15.6243 44.9033 16.757 39.8703 18.941 35.2653C21.125 30.6603 24.3056 26.5986 28.2527 23.3742C32.1997 20.1498 36.8144 17.8434 41.7625 16.6221C46.7106 15.4007 51.8685 15.295 56.8625 16.3124C58.0745 16.5437 59.3289 16.2878 60.3534 15.6001C61.3779 14.9125 62.09 13.8486 62.3351 12.6393C62.5803 11.43 62.3387 10.1728 61.6629 9.14051C60.987 8.10817 59.9314 7.38395 58.725 7.12494C49.5104 5.25152 39.9375 6.39675 31.4248 10.3909C22.9122 14.3851 15.9129 21.0156 11.4643 29.2998C7.01575 37.584 5.35458 47.0811 6.72703 56.3834C8.09947 65.6858 12.4325 74.2985 19.0839 80.9451C25.7353 87.5916 34.3512 91.9184 43.6546 93.284C52.958 94.6496 62.4538 92.9815 70.7348 88.5268C79.0157 84.0722 85.6411 77.0681 89.629 68.5525C93.617 60.037 94.7552 50.4631 92.875 41.2499C92.6272 40.0316 91.9055 38.9616 90.8688 38.2753C89.8321 37.5891 88.5652 37.3428 87.3469 37.5906C86.1285 37.8384 85.0585 38.56 84.3723 39.5967C83.686 40.6335 83.4397 41.9004 83.6875 43.1187C84.1417 45.3395 84.3708 47.6333 84.375 49.9999C84.375 59.1168 80.7534 67.8602 74.3068 74.3067C67.8602 80.7533 59.1168 84.3749 50 84.3749C40.8832 84.3749 32.1398 80.7533 25.6932 74.3067C19.2466 67.8602 15.625 59.1168 15.625 49.9999ZM49.15 34.3999C50.3916 34.3336 51.5559 33.7768 52.3869 32.8521C53.2179 31.9273 53.6476 30.7102 53.5813 29.4687C53.515 28.2271 52.9582 27.0628 52.0334 26.2318C51.1086 25.4008 49.8916 24.9711 48.65 25.0374C43.8495 25.2961 39.2255 26.9335 35.3318 29.7532C31.4382 32.573 28.4401 36.4556 26.6969 40.9358C24.9536 45.416 24.5391 50.3039 25.503 55.0137C26.4669 59.7235 28.7683 64.0555 32.1314 67.4907C35.4946 70.9259 39.7769 73.3185 44.4653 74.3819C49.1536 75.4453 54.0491 75.1344 58.5653 73.4865C63.0814 71.8385 67.0266 68.9233 69.9282 65.0903C72.8298 61.2572 74.5647 56.6689 74.925 51.8749C75.017 50.6351 74.6127 49.4094 73.801 48.4676C72.9893 47.5258 71.8368 46.9451 70.5969 46.8531C69.357 46.7611 68.1313 47.1654 67.1896 47.9771C66.2478 48.7887 65.667 49.9413 65.575 51.1812C65.347 54.1758 64.2609 57.0413 62.4465 59.4346C60.6321 61.8279 58.1665 63.6476 55.3447 64.6758C52.5229 65.7041 49.4646 65.8973 46.5358 65.2324C43.607 64.5675 40.9319 63.0726 38.8308 60.9267C36.7296 58.7808 35.2914 56.0748 34.6883 53.1327C34.0853 50.1906 34.3429 47.137 35.4304 44.3375C36.5178 41.538 38.389 39.1112 40.82 37.3477C43.251 35.5841 46.1387 34.5585 49.1375 34.3937" fill="url(#paint0_linear_99_162)"/>
</g>
<defs>
<linearGradient id="paint0_linear_99_162" x1="-10.7856" y1="47.6149" x2="100.001" y2="47.6149" gradientUnits="userSpaceOnUse">
<stop stop-color="#FF5637"/>
<stop offset="1" stop-color="#F7084C"/>
</linearGradient>
<clipPath id="clip0_99_162">
<rect width="100" height="100" fill="white"/>
</clipPath>
</defs>
</svg>
