<svg width="139" height="35" viewBox="0 0 139 35" fill="none" xmlns="http://www.w3.org/2000/svg">
<path d="M0.0400002 34V0.399998H4.84V29.824H23.032V34H0.0400002ZM43.0986 34.384C40.5386 34.384 38.1546 33.952 35.9466 33.088C33.7706 32.224 31.8826 31.024 30.2826 29.488C28.6826 27.92 27.4346 26.096 26.5386 24.016C25.6426 21.936 25.1946 19.664 25.1946 17.2C25.1946 14.736 25.6426 12.464 26.5386 10.384C27.4346 8.304 28.6826 6.496 30.2826 4.96C31.8826 3.392 33.7706 2.176 35.9466 1.312C38.1226 0.447999 40.5066 0.0159998 43.0986 0.0159998C45.6586 0.0159998 48.0106 0.447999 50.1546 1.312C52.3306 2.144 54.2186 3.344 55.8186 4.912C57.4506 6.448 58.6986 8.256 59.5626 10.336C60.4586 12.416 60.9066 14.704 60.9066 17.2C60.9066 19.696 60.4586 21.984 59.5626 24.064C58.6986 26.144 57.4506 27.968 55.8186 29.536C54.2186 31.072 52.3306 32.272 50.1546 33.136C48.0106 33.968 45.6586 34.384 43.0986 34.384ZM43.0986 30.112C44.9546 30.112 46.6666 29.792 48.2346 29.152C49.8346 28.512 51.2106 27.616 52.3626 26.464C53.5466 25.28 54.4586 23.904 55.0986 22.336C55.7706 20.768 56.1066 19.056 56.1066 17.2C56.1066 15.344 55.7706 13.632 55.0986 12.064C54.4586 10.496 53.5466 9.136 52.3626 7.984C51.2106 6.8 49.8346 5.888 48.2346 5.248C46.6666 4.608 44.9546 4.288 43.0986 4.288C41.2106 4.288 39.4666 4.608 37.8666 5.248C36.2986 5.888 34.9226 6.8 33.7386 7.984C32.5546 9.136 31.6266 10.496 30.9546 12.064C30.3146 13.632 29.9946 15.344 29.9946 17.2C29.9946 19.056 30.3146 20.768 30.9546 22.336C31.6266 23.904 32.5546 25.28 33.7386 26.464C34.9226 27.616 36.2986 28.512 37.8666 29.152C39.4666 29.792 41.2106 30.112 43.0986 30.112ZM83.4111 34.384C80.8191 34.384 78.4351 33.968 76.2591 33.136C74.0831 32.272 72.1951 31.072 70.5951 29.536C68.9951 27.968 67.7471 26.144 66.8511 24.064C65.9551 21.984 65.5071 19.696 65.5071 17.2C65.5071 14.704 65.9551 12.416 66.8511 10.336C67.7471 8.256 68.9951 6.448 70.5951 4.912C72.2271 3.344 74.1311 2.144 76.3071 1.312C78.4831 0.447999 80.8831 0.0159998 83.5071 0.0159998C86.1631 0.0159998 88.5951 0.447999 90.8031 1.312C93.0111 2.176 94.8831 3.472 96.4191 5.2L93.4431 8.176C92.0671 6.832 90.5631 5.856 88.9311 5.248C87.3311 4.608 85.5871 4.288 83.6991 4.288C81.7791 4.288 79.9871 4.608 78.3231 5.248C76.6911 5.888 75.2671 6.784 74.0511 7.936C72.8671 9.088 71.9391 10.464 71.2671 12.064C70.6271 13.632 70.3071 15.344 70.3071 17.2C70.3071 19.024 70.6271 20.736 71.2671 22.336C71.9391 23.904 72.8671 25.28 74.0511 26.464C75.2671 27.616 76.6911 28.512 78.3231 29.152C79.9551 29.792 81.7311 30.112 83.6511 30.112C85.4431 30.112 87.1551 29.84 88.7871 29.296C90.4511 28.72 91.9871 27.776 93.3951 26.464L96.1311 30.112C94.4671 31.52 92.5151 32.592 90.2751 33.328C88.0671 34.032 85.7791 34.384 83.4111 34.384ZM91.5231 29.488V17.008H96.1311V30.112L91.5231 29.488ZM120.489 34.384C117.929 34.384 115.545 33.952 113.337 33.088C111.161 32.224 109.273 31.024 107.673 29.488C106.073 27.92 104.825 26.096 103.929 24.016C103.033 21.936 102.585 19.664 102.585 17.2C102.585 14.736 103.033 12.464 103.929 10.384C104.825 8.304 106.073 6.496 107.673 4.96C109.273 3.392 111.161 2.176 113.337 1.312C115.513 0.447999 117.897 0.0159998 120.489 0.0159998C123.049 0.0159998 125.401 0.447999 127.545 1.312C129.721 2.144 131.609 3.344 133.209 4.912C134.841 6.448 136.089 8.256 136.953 10.336C137.849 12.416 138.297 14.704 138.297 17.2C138.297 19.696 137.849 21.984 136.953 24.064C136.089 26.144 134.841 27.968 133.209 29.536C131.609 31.072 129.721 32.272 127.545 33.136C125.401 33.968 123.049 34.384 120.489 34.384ZM120.489 30.112C122.345 30.112 124.057 29.792 125.625 29.152C127.225 28.512 128.601 27.616 129.753 26.464C130.937 25.28 131.849 23.904 132.489 22.336C133.161 20.768 133.497 19.056 133.497 17.2C133.497 15.344 133.161 13.632 132.489 12.064C131.849 10.496 130.937 9.136 129.753 7.984C128.601 6.8 127.225 5.888 125.625 5.248C124.057 4.608 122.345 4.288 120.489 4.288C118.601 4.288 116.857 4.608 115.257 5.248C113.689 5.888 112.313 6.8 111.129 7.984C109.945 9.136 109.017 10.496 108.345 12.064C107.705 13.632 107.385 15.344 107.385 17.2C107.385 19.056 107.705 20.768 108.345 22.336C109.017 23.904 109.945 25.28 111.129 26.464C112.313 27.616 113.689 28.512 115.257 29.152C116.857 29.792 118.601 30.112 120.489 30.112Z" fill="white"/>
</svg>
