<svg width="50" height="50" viewBox="0 0 50 50" fill="none" xmlns="http://www.w3.org/2000/svg">
<path d="M42.8542 30.9584L45.8333 27.9792L42.8542 25L35.4167 32.4375L17.5625 14.5834L25 7.14585L22.0208 4.16669L19.0417 7.14585L16.0625 4.16669L11.6042 8.62502L8.625 5.64585L5.64583 8.62502L8.625 11.6042L4.16667 16.0625L7.14583 19.0417L4.16667 22.0209L7.14583 25L14.5833 17.5625L32.4375 35.4167L25 42.8542L27.9792 45.8334L30.9583 42.8542L33.9375 45.8334L38.3958 41.375L41.375 44.3542L44.3542 41.375L41.375 38.3959L45.8333 33.9375L42.8542 30.9584Z" fill="white"/>
</svg>
